HIERARCHY
ROOT newVegas:Hips
{
	OFFSET 0.000000 96.479958 0.000000
	CHANNELS 6 Xposition Yposition Zposition Xrotation Yrotation Zrotation
	JOINT newVegas:Pelvis
	{
		OFFSET 0.000000 0.000000 0.000000
		CHANNELS 3 Xrotation Yrotation Zrotation
		JOINT newVegas:LeftUpLeg
		{
			OFFSET 18.735201 -5.666702 -4.541200
			CHANNELS 3 Xrotation Yrotation Zrotation
			JOINT newVegas:LeftLeg
			{
				OFFSET -0.021200 -31.938179 0.493100
				CHANNELS 3 Xrotation Yrotation Zrotation
				JOINT newVegas:LeftFoot
				{
					OFFSET 0.021200 -31.938179 -4.336299
					CHANNELS 3 Xrotation Yrotation Zrotation
					JOINT newVegas:LeftToeBase
					{
						OFFSET 0.943001 -26.722000 15.023500
						CHANNELS 3 Xrotation Yrotation Zrotation
						End Site
						{
							OFFSET 0.000000 30.670183 0.000000
						}
					}
				}
				JOINT newVegas:Left_PantLeg
				{
					OFFSET 0.663870 -9.044666 -1.108900
					CHANNELS 3 Xrotation Yrotation Zrotation
					End Site
					{
						OFFSET 1.415995 20.635357 0.000000
					}
				}
			}
		}
		JOINT newVegas:RightUpLeg
		{
			OFFSET -18.735201 -5.666702 -4.541200
			CHANNELS 3 Xrotation Yrotation Zrotation
			JOINT newVegas:RightLeg
			{
				OFFSET 0.018946 -31.938133 0.493100
				CHANNELS 3 Xrotation Yrotation Zrotation
				JOINT newVegas:RightFoot
				{
					OFFSET -0.018946 -31.938126 -4.336299
					CHANNELS 3 Xrotation Yrotation Zrotation
					JOINT newVegas:RightToeBase
					{
						OFFSET -0.943001 -26.722004 15.023500
						CHANNELS 3 Xrotation Yrotation Zrotation
						End Site
						{
							OFFSET 0.000000 30.670187 0.000000
						}
					}
				}
				JOINT newVegas:Right_PantLeg
				{
					OFFSET -0.661674 -9.044716 -1.108900
					CHANNELS 3 Xrotation Yrotation Zrotation
					End Site
					{
						OFFSET -1.415958 20.635269 0.000000
					}
				}
			}
		}
	}
	JOINT newVegas:Spine
	{
		OFFSET 0.000000 10.199997 -0.299500
		CHANNELS 3 Xrotation Yrotation Zrotation
		JOINT newVegas:Spine1
		{
			OFFSET 0.000000 11.900002 -1.516600
			CHANNELS 3 Xrotation Yrotation Zrotation
			JOINT newVegas:Spine2
			{
				OFFSET 0.000000 13.600006 -2.842500
				CHANNELS 3 Xrotation Yrotation Zrotation
				JOINT newVegas:Neck
				{
					OFFSET 0.000000 9.624100 -2.890100
					CHANNELS 3 Xrotation Yrotation Zrotation
					JOINT newVegas:Head
					{
						OFFSET 0.000000 14.068802 -1.351900
						CHANNELS 3 Xrotation Yrotation Zrotation
						JOINT newVegas:Hair_Back
						{
							OFFSET 0.000000 3.231903 -17.524799
							CHANNELS 3 Xrotation Yrotation Zrotation
							End Site
							{
								OFFSET 0.000000 19.849884 0.000000
							}
						}
						JOINT newVegas:Hair_Front
						{
							OFFSET 0.000000 31.260406 4.573800
							CHANNELS 3 Xrotation Yrotation Zrotation
							JOINT newVegas:Hair_Front1
							{
								OFFSET 0.000000 2.284103 11.993300
								CHANNELS 3 Xrotation Yrotation Zrotation
								JOINT newVegas:Hair_Front2
								{
									OFFSET 0.000000 2.284103 11.993300
									CHANNELS 3 Xrotation Yrotation Zrotation
									End Site
									{
										OFFSET 0.000000 12.208862 0.000000
									}
								}
							}
						}
						JOINT newVegas:Jowel
						{
							OFFSET 0.000000 -7.458206 6.864100
							CHANNELS 3 Xrotation Yrotation Zrotation
							End Site
							{
								OFFSET 0.000000 19.849884 0.000000
							}
						}
					}
				}
				JOINT newVegas:LeftShoulder
				{
					OFFSET 15.263000 10.923401 -0.547700
					CHANNELS 3 Xrotation Yrotation Zrotation
					JOINT newVegas:LeftArm
					{
						OFFSET 25.438599 -2.830597 -13.032500
						CHANNELS 3 Xrotation Yrotation Zrotation
						JOINT newVegas:LeftForeArm
						{
							OFFSET 29.960503 0.000000 0.000000
							CHANNELS 3 Xrotation Yrotation Zrotation
							JOINT newVegas:LeftHand
							{
								OFFSET 27.849251 0.000000 0.000000
								CHANNELS 3 Xrotation Yrotation Zrotation
								JOINT newVegas:LeftHandThumb1
								{
									OFFSET 4.487587 -3.305161 6.305391
									CHANNELS 3 Xrotation Yrotation Zrotation
									JOINT newVegas:LeftHandThumb2
									{
										OFFSET 5.480453 -3.164139 3.164143
										CHANNELS 3 Xrotation Yrotation Zrotation
										JOINT newVegas:LeftHandThumb3
										{
											OFFSET 5.159721 -2.978973 2.978967
											CHANNELS 3 Xrotation Yrotation Zrotation
											End Site
											{
												OFFSET 2.494507 5.926697 1.738678
											}
										}
									}
								}
								JOINT newVegas:LeftHandIndex1
								{
									OFFSET 18.578728 -0.527832 5.208049
									CHANNELS 3 Xrotation Yrotation Zrotation
									JOINT newVegas:LeftHandIndex2
									{
										OFFSET 3.192009 0.000000 0.000000
										CHANNELS 3 Xrotation Yrotation Zrotation
										JOINT newVegas:LeftHandIndex3
										{
											OFFSET 3.835129 0.000000 0.000000
											CHANNELS 3 Xrotation Yrotation Zrotation
											End Site
											{
												OFFSET -0.034599 3.816971 0.371180
											}
										}
									}
								}
								JOINT newVegas:LeftHandMiddle1
								{
									OFFSET 18.476105 0.000000 0.000000
									CHANNELS 3 Xrotation Yrotation Zrotation
									JOINT newVegas:LeftHandMiddle2
									{
										OFFSET 3.324875 0.000000 0.000000
										CHANNELS 3 Xrotation Yrotation Zrotation
										JOINT newVegas:LeftHandMiddle3
										{
											OFFSET 4.596550 0.000000 0.000000
											CHANNELS 3 Xrotation Yrotation Zrotation
											End Site
											{
												OFFSET 0.057701 4.578827 0.399218
											}
										}
									}
								}
								JOINT newVegas:LeftHandRing1
								{
									OFFSET 17.732719 0.121887 -4.201567
									CHANNELS 3 Xrotation Yrotation Zrotation
									JOINT newVegas:LeftHandRing2
									{
										OFFSET 2.733170 0.000000 0.000000
										CHANNELS 3 Xrotation Yrotation Zrotation
										JOINT newVegas:LeftHandRing3
										{
											OFFSET 3.178268 0.000000 0.000000
											CHANNELS 3 Xrotation Yrotation Zrotation
											End Site
											{
												OFFSET 0.119102 3.170624 0.185394
											}
										}
									}
								}
								JOINT newVegas:LeftHandPinky1
								{
									OFFSET 15.989624 -0.606689 -7.535461
									CHANNELS 3 Xrotation Yrotation Zrotation
									JOINT newVegas:LeftHandPinky2
									{
										OFFSET 2.538986 0.000000 0.000000
										CHANNELS 3 Xrotation Yrotation Zrotation
										JOINT newVegas:LeftHandPinky3
										{
											OFFSET 2.593102 0.000000 0.000000
											CHANNELS 3 Xrotation Yrotation Zrotation
											End Site
											{
												OFFSET -0.150902 2.584198 0.152708
											}
										}
									}
								}
							}
							JOINT newVegas:Left_Sleeve
							{
								OFFSET 0.267448 -0.649796 0.577675
								CHANNELS 3 Xrotation Yrotation Zrotation
								End Site
								{
									OFFSET 0.000000 15.991241 0.000000
								}
							}
							JOINT newVegas:Left_CapeC
							{
								OFFSET 15.715958 -8.608795 -6.935905
								CHANNELS 3 Xrotation Yrotation Zrotation
								JOINT newVegas:Left_CapeC1
								{
									OFFSET 0.000000 -8.688499 0.000000
									CHANNELS 3 Xrotation Yrotation Zrotation
									End Site
									{
										OFFSET 0.000000 8.688499 0.000000
									}
								}
							}
						}
						JOINT newVegas:Left_CapeB
						{
							OFFSET 26.118385 -8.608795 -7.079235
							CHANNELS 3 Xrotation Yrotation Zrotation
							JOINT newVegas:Left_CapeB1
							{
								OFFSET 0.000000 -8.688499 0.000000
								CHANNELS 3 Xrotation Yrotation Zrotation
								End Site
								{
									OFFSET 0.000000 8.688499 0.000000
								}
							}
						}
						JOINT newVegas:Left_CapeA
						{
							OFFSET 5.115639 -8.608795 -10.395809
							CHANNELS 3 Xrotation Yrotation Zrotation
							JOINT newVegas:Left_CapeA1
							{
								OFFSET 0.000000 -8.688499 0.000000
								CHANNELS 3 Xrotation Yrotation Zrotation
								End Site
								{
									OFFSET 0.000000 8.688499 0.000000
								}
							}
						}
					}
				}
				JOINT newVegas:RightShoulder
				{
					OFFSET -15.263000 10.923401 -0.547700
					CHANNELS 3 Xrotation Yrotation Zrotation
					JOINT newVegas:RightArm
					{
						OFFSET -25.438599 -2.830597 -13.032500
						CHANNELS 3 Xrotation Yrotation Zrotation
						JOINT newVegas:RightForeArm
						{
							OFFSET -29.960503 0.000000 0.000000
							CHANNELS 3 Xrotation Yrotation Zrotation
							JOINT newVegas:RightHand
							{
								OFFSET -27.849251 0.000000 0.000000
								CHANNELS 3 Xrotation Yrotation Zrotation
								JOINT newVegas:RightHandThumb1
								{
									OFFSET -4.487587 -3.305161 6.305391
									CHANNELS 3 Xrotation Yrotation Zrotation
									JOINT newVegas:RightHandThumb2
									{
										OFFSET -5.480453 -3.164139 3.164143
										CHANNELS 3 Xrotation Yrotation Zrotation
										JOINT newVegas:RightHandThumb3
										{
											OFFSET -5.159721 -2.978973 2.978967
											CHANNELS 3 Xrotation Yrotation Zrotation
											End Site
											{
												OFFSET -2.494507 5.926697 1.738678
											}
										}
									}
								}
								JOINT newVegas:RightHandIndex1
								{
									OFFSET -18.578728 -0.527832 5.208049
									CHANNELS 3 Xrotation Yrotation Zrotation
									JOINT newVegas:RightHandIndex2
									{
										OFFSET -3.192009 0.000000 0.000000
										CHANNELS 3 Xrotation Yrotation Zrotation
										JOINT newVegas:RightHandIndex3
										{
											OFFSET -3.835129 0.000000 0.000000
											CHANNELS 3 Xrotation Yrotation Zrotation
											End Site
											{
												OFFSET 0.034599 3.816971 0.371180
											}
										}
									}
								}
								JOINT newVegas:RightHandMiddle1
								{
									OFFSET -18.476105 0.000000 0.000000
									CHANNELS 3 Xrotation Yrotation Zrotation
									JOINT newVegas:RightHandMiddle2
									{
										OFFSET -3.324875 0.000000 0.000000
										CHANNELS 3 Xrotation Yrotation Zrotation
										JOINT newVegas:RightHandMiddle3
										{
											OFFSET -4.596550 0.000000 0.000000
											CHANNELS 3 Xrotation Yrotation Zrotation
											End Site
											{
												OFFSET -0.057701 4.578827 0.399218
											}
										}
									}
								}
								JOINT newVegas:RightHandRing1
								{
									OFFSET -17.732719 0.121887 -4.201567
									CHANNELS 3 Xrotation Yrotation Zrotation
									JOINT newVegas:RightHandRing2
									{
										OFFSET -2.733170 0.000000 0.000000
										CHANNELS 3 Xrotation Yrotation Zrotation
										JOINT newVegas:RightHandRing3
										{
											OFFSET -3.178268 0.000000 0.000000
											CHANNELS 3 Xrotation Yrotation Zrotation
											End Site
											{
												OFFSET -0.119102 3.170624 0.185394
											}
										}
									}
								}
								JOINT newVegas:RightHandPinky1
								{
									OFFSET -15.989624 -0.606689 -7.535461
									CHANNELS 3 Xrotation Yrotation Zrotation
									JOINT newVegas:RightHandPinky2
									{
										OFFSET -2.538986 0.000000 0.000000
										CHANNELS 3 Xrotation Yrotation Zrotation
										JOINT newVegas:RightHandPinky3
										{
											OFFSET -2.593102 0.000000 0.000000
											CHANNELS 3 Xrotation Yrotation Zrotation
											End Site
											{
												OFFSET 0.150902 2.584198 0.152708
											}
										}
									}
								}
							}
							JOINT newVegas:Right_CapeC
							{
								OFFSET -15.715958 -8.608795 -6.935905
								CHANNELS 3 Xrotation Yrotation Zrotation
								JOINT newVegas:Right_CapeC1
								{
									OFFSET 0.000000 -8.688499 0.000000
									CHANNELS 3 Xrotation Yrotation Zrotation
									End Site
									{
										OFFSET 0.000000 8.688499 0.000000
									}
								}
							}
							JOINT newVegas:Right_Sleeve
							{
								OFFSET -0.267448 -0.649994 0.577675
								CHANNELS 3 Xrotation Yrotation Zrotation
								End Site
								{
									OFFSET 0.000000 15.991302 0.000000
								}
							}
						}
						JOINT newVegas:Right_CapeA
						{
							OFFSET -5.115540 -8.608795 -10.395824
							CHANNELS 3 Xrotation Yrotation Zrotation
							JOINT newVegas:Right_CapeA1
							{
								OFFSET 0.000000 -8.688499 0.000000
								CHANNELS 3 Xrotation Yrotation Zrotation
								End Site
								{
									OFFSET 0.000000 8.688499 0.000000
								}
							}
						}
						JOINT newVegas:Right_CapeB
						{
							OFFSET -26.118187 -8.608795 -7.079266
							CHANNELS 3 Xrotation Yrotation Zrotation
							JOINT newVegas:Right_CapeB1
							{
								OFFSET 0.000000 -8.688499 0.000000
								CHANNELS 3 Xrotation Yrotation Zrotation
								End Site
								{
									OFFSET 0.000000 8.688499 0.000000
								}
							}
						}
					}
				}
				JOINT newVegas:Left_Collar
				{
					OFFSET 18.625099 8.655502 8.828100
					CHANNELS 3 Xrotation Yrotation Zrotation
					JOINT newVegas:Left_Collar1
					{
						OFFSET 14.783401 10.540405 -1.259500
						CHANNELS 3 Xrotation Yrotation Zrotation
						End Site
						{
							OFFSET 0.000000 18.199875 0.000000
						}
					}
				}
				JOINT newVegas:Collar_Back
				{
					OFFSET 0.000000 15.630707 -20.132601
					CHANNELS 3 Xrotation Yrotation Zrotation
					End Site
					{
						OFFSET 0.000000 22.523010 0.000000
					}
				}
				JOINT newVegas:Left_Peck
				{
					OFFSET 17.239599 -5.132599 25.482599
					CHANNELS 3 Xrotation Yrotation Zrotation
					End Site
					{
						OFFSET 0.000000 22.523010 0.000000
					}
				}
				JOINT newVegas:Right_Peck
				{
					OFFSET -17.239599 -5.132202 25.482599
					CHANNELS 3 Xrotation Yrotation Zrotation
					End Site
					{
						OFFSET 0.000000 22.523010 0.000000
					}
				}
				JOINT newVegas:Right_Collar
				{
					OFFSET -18.625099 8.655792 8.828100
					CHANNELS 3 Xrotation Yrotation Zrotation
					JOINT newVegas:Right_Collar1
					{
						OFFSET -14.783401 10.539993 -1.259500
						CHANNELS 3 Xrotation Yrotation Zrotation
						End Site
						{
							OFFSET 0.000000 18.199631 0.000000
						}
					}
				}
			}
		}
		JOINT newVegas:Belly
		{
			OFFSET 0.000000 -6.540398 9.014299
			CHANNELS 3 Xrotation Yrotation Zrotation
			End Site
			{
				OFFSET 0.000000 11.566666 0.000000
			}
		}
	}
	JOINT newVegas:ElvisFacialAnim_Joint
	{
		OFFSET 1.000000 -95.330101 -8.825800
		CHANNELS 3 Xrotation Yrotation Zrotation
		End Site
		{
			OFFSET 0.000000 35.315800 0.000000
		}
	}
}
MOTION
Frames: 4
Frame Time: 0.016667
-1.424684 93.289635 6.909481 -6.527453 7.410248 -0.349754 -0.000001 0.000000 -0.000000 -20.904682 13.687586 14.714452 29.425339 0.550778 5.262617 -4.541022 -11.616655 -13.597486 0.000000 -0.000001 -0.000000 -0.000000 0.000001 0.000000 6.448818 -9.661493 6.099246 18.268615 -9.768503 -6.741820 -17.302129 -16.467004 4.728460 0.000000 -0.000000 -0.000000 0.000001 0.000001 -0.000000 2.729954 1.603070 2.350307 2.229757 0.462799 2.709335 1.815967 0.462785 2.663380 4.829822 -0.940468 -0.444808 4.829844 -0.940467 -0.444803 -0.000000 0.000001 -0.000000 4.829897 -0.940463 -0.444807 4.829756 -0.940477 -0.444807 0.000001 -0.000000 -0.000000 -0.000000 0.000001 -0.000000 0.980235 -16.729753 -12.817468 1.380168 -1.285203 -71.138701 0.000001 0.000001 -0.000002 -34.595530 -2.769057 -5.684775 -0.945036 2.085479 4.986302 11.826370 25.404998 17.117646 0.000001 -0.000000 -0.000003 0.084268 -0.924050 -8.185795 0.267783 1.752618 -17.372876 -0.000000 -0.000000 0.000000 -0.073343 2.742589 -16.488408 0.269693 1.758707 -17.435301 -0.000000 -0.000003 -0.000000 0.084984 3.528579 -21.560646 0.386270 2.093832 -20.901991 -0.000000 -0.000002 -0.000002 0.961163 5.610198 -27.583176 0.269774 1.758968 -17.437948 -0.000004 -0.000003 -0.000000 -0.000000 0.000000 0.000000 -0.000000 0.000000 0.000000 -0.000000 0.000000 0.000000 0.000000 0.000000 0.000001 0.000000 0.000000 0.000001 0.000000 0.000000 0.000001 0.000000 -0.000000 0.000001 0.966137 8.437343 16.887346 28.204744 8.686312 58.059757 0.000000 3.688155 -0.000009 -18.173165 -1.917475 9.747772 -22.530622 4.903179 4.908362 9.518474 -27.760672 -21.071069 -0.000003 -0.000003 0.000001 1.062306 -0.350882 19.899445 1.041859 -2.937731 39.046996 -0.000002 0.000003 -0.000001 0.381000 -4.016460 23.477870 1.260452 -3.188019 43.136531 0.000004 -0.000002 -0.000001 -0.717280 -1.494725 23.600423 0.643376 -2.363851 30.447098 0.000001 0.000001 -0.000001 1.085908 -5.686146 22.733436 0.336826 -1.740580 21.902849 0.000001 0.000001 0.000005 -0.000000 0.000000 0.000001 -0.000002 -0.000000 -0.000001 -0.000000 -0.000000 0.000001 0.000000 -0.000002 -0.000000 0.000000 -0.000001 -0.000000 0.000000 -0.000002 -0.000000 0.000000 -0.000001 0.000000 0.000000 0.000001 -0.000000 0.000000 0.000001 -0.000000 0.000000 0.000001 -0.000000 0.000000 0.000001 -0.000000 0.000000 0.000001 -0.000000 0.000000 0.000001 -0.000000 0.000000 0.000001 -0.000000 -0.000000 0.000000 -0.000000 -0.000001 0.000000 -0.000000 
-1.406846 93.345757 6.898271 -6.289860 6.877428 -0.433459 0.000000 -0.000000 0.000000 -20.757150 13.745970 14.691525 29.169074 0.384218 5.183725 -4.531263 -10.939912 -13.546213 0.000000 -0.000001 0.000000 0.000000 -0.000002 -0.000000 6.110756 -9.683704 5.902743 18.127588 -9.776555 -6.692407 -17.055520 -15.878139 4.814621 0.000000 0.000000 0.000000 0.000001 -0.000000 -0.000000 2.705387 1.575671 2.339688 2.274833 0.425904 2.707981 1.839811 0.425765 2.655625 4.733309 -0.880695 -0.422079 4.733310 -0.880696 -0.422080 0.000000 -0.000001 -0.000000 4.733240 -0.880689 -0.422082 4.733380 -0.880697 -0.422076 -0.000000 -0.000000 0.000000 0.000000 -0.000001 0.000000 0.974911 -16.800881 -12.868812 1.435873 -0.692811 -71.334291 -0.000000 0.000001 -0.000004 -33.995580 -2.404739 -5.539974 -0.740811 2.177763 4.903567 11.791442 25.381038 17.236264 0.000001 -0.000003 -0.000006 0.101979 -0.894336 -8.243460 0.267744 1.752495 -17.371606 0.000003 -0.000000 -0.000002 -0.055498 2.807225 -16.539190 0.269559 1.758272 -17.430907 0.000000 -0.000000 0.000000 0.092935 3.552175 -21.630343 0.386233 2.093758 -20.901219 0.000000 -0.000000 -0.000002 0.984306 5.638685 -27.641105 0.269934 1.759476 -17.443122 -0.000003 -0.000003 -0.000001 0.000001 0.000000 0.000001 0.000001 0.000000 0.000001 0.000001 0.000000 0.000001 0.000000 0.000001 -0.000000 0.000001 0.000001 -0.000000 0.000000 0.000001 -0.000000 0.000001 0.000001 -0.000000 0.974205 8.465968 16.811911 28.086911 7.872549 58.190439 -0.000005 3.162835 -0.000000 -16.303855 -3.021910 9.938329 -22.319998 4.616036 2.964454 9.813036 -27.713935 -20.187901 0.000002 -0.000001 -0.000000 1.148883 -0.266918 17.459125 0.984715 -2.865928 37.918243 -0.000002 0.000000 -0.000002 0.390239 -4.036147 21.065220 1.179150 -3.099098 41.653875 0.000002 -0.000001 -0.000001 -0.617047 -1.495111 21.700921 0.595701 -2.280872 29.270516 -0.000000 -0.000001 0.000004 1.015399 -5.750886 19.977494 0.318390 -1.694000 21.287434 0.000002 0.000002 0.000001 -0.000000 0.000000 0.000001 0.000000 -0.000000 0.000000 -0.000000 -0.000000 0.000001 0.000001 0.000001 0.000001 0.000001 0.000001 0.000001 0.000001 0.000001 0.000001 0.000001 0.000001 0.000001 0.000000 0.000002 0.000000 0.000000 0.000002 0.000000 0.000000 0.000002 0.000000 0.000000 0.000002 0.000000 0.000000 0.000002 0.000000 0.000000 0.000002 0.000000 0.000000 0.000002 0.000000 0.000000 -0.000000 0.000000 0.000000 -0.000000 0.000000 
-1.397336 93.400230 6.877875 -6.052454 6.301748 -0.533038 -0.000000 0.000000 -0.000000 -20.618628 13.799763 14.682948 28.937384 0.202574 5.118390 -4.534444 -10.210521 -13.494680 0.000000 -0.000000 0.000000 -0.000000 -0.000002 -0.000000 5.750861 -9.700218 5.712725 17.993251 -9.786346 -6.627586 -16.799255 -15.249584 4.888053 -0.000000 -0.000000 -0.000000 0.000002 0.000002 -0.000000 2.684839 1.557384 2.332864 2.323626 0.402819 2.709165 1.868223 0.402405 2.651737 4.631766 -0.821766 -0.396594 4.631769 -0.821764 -0.396592 -0.000000 0.000000 -0.000001 4.631769 -0.821762 -0.396593 4.631766 -0.821766 -0.396591 0.000001 -0.000001 -0.000000 -0.000000 0.000000 -0.000000 0.973021 -16.881875 -12.893317 1.489844 -0.193283 -71.539094 -0.000001 0.000001 0.000014 -33.441416 -2.085262 -5.380695 -0.610932 2.223747 4.844142 11.771020 25.366856 17.305773 0.000001 -0.000006 -0.000002 0.109643 -0.882557 -8.256115 0.267712 1.752371 -17.370344 -0.000001 0.000001 -0.000002 -0.045298 2.842761 -16.552347 0.269395 1.757776 -17.425699 -0.000002 -0.000001 0.000000 0.096607 3.562958 -21.660789 0.386220 2.093740 -20.900965 -0.000001 -0.000002 -0.000003 0.994180 5.653276 -27.663451 0.269993 1.759651 -17.445019 0.000002 -0.000002 0.000000 -0.000001 0.000000 0.000002 -0.000001 0.000000 0.000002 -0.000001 0.000000 0.000002 0.000001 -0.000001 0.000000 0.000002 -0.000001 0.000000 0.000001 -0.000001 0.000000 0.000002 -0.000001 -0.000000 0.974404 8.574765 16.795623 27.644525 6.868328 58.342130 0.000002 2.537503 0.000004 -14.582065 -4.211713 10.110752 -21.901208 4.412086 1.458858 9.977224 -27.585623 -19.715623 0.000003 -0.000004 -0.000001 1.225527 -0.253446 15.752078 0.931944 -2.796954 36.850042 0.000004 -0.000000 -0.000003 0.391781 -4.052720 19.475849 1.103357 -3.011850 40.232065 -0.000001 -0.000001 -0.000000 -0.553182 -1.507914 20.499310 0.554146 -2.205142 28.208637 -0.000000 0.000006 0.000001 0.940687 -5.715211 18.308479 0.302336 -1.652245 20.737761 0.000002 0.000003 -0.000001 -0.000002 0.000001 0.000002 -0.000002 0.000001 0.000001 -0.000002 0.000001 0.000002 -0.000000 0.000003 0.000000 -0.000000 0.000002 0.000000 -0.000000 0.000003 0.000000 -0.000000 0.000002 0.000000 0.000000 0.000000 -0.000000 0.000000 0.000000 -0.000000 0.000000 0.000000 -0.000000 0.000000 0.000000 -0.000000 0.000000 0.000000 -0.000000 0.000000 0.000000 -0.000000 0.000000 0.000000 -0.000000 0.000000 -0.000001 -0.000000 -0.000000 0.000000 -0.000000 
-1.395986 93.451416 6.849103 -5.818347 5.694657 -0.648556 0.000000 0.000000 -0.000000 -20.496694 13.849276 14.692792 28.739872 0.011810 5.067786 -4.555552 -9.448477 -13.444492 0.000000 -0.000001 0.000000 -0.000000 0.000001 -0.000000 5.376716 -9.708892 5.535469 17.865550 -9.798121 -6.546727 -16.537461 -14.594287 4.945634 -0.000000 0.000000 -0.000000 0.000000 0.000000 -0.000000 2.667761 1.545346 2.330310 2.374961 0.388697 2.715268 1.900021 0.387847 2.652640 4.527800 -0.763773 -0.368853 4.527808 -0.763771 -0.368852 0.000001 0.000000 0.000000 4.527945 -0.763787 -0.368848 4.527729 -0.763770 -0.368853 -0.000000 0.000000 -0.000000 0.000001 0.000000 0.000001 0.974776 -16.968720 -12.889545 1.560686 0.185207 -71.747797 -0.000001 -0.000004 -0.000010 -32.970594 -1.827786 -5.223740 -0.552301 2.228800 4.808848 11.764080 25.361985 17.329346 -0.000000 0.000000 0.000001 0.108349 -0.885831 -8.232170 0.267670 1.752254 -17.369219 0.000002 0.000001 -0.000002 -0.041765 2.853396 -16.534394 0.269275 1.757362 -17.421538 -0.000002 0.000000 -0.000003 0.096943 3.563561 -21.656003 0.386238 2.093776 -20.901344 0.000000 -0.000001 -0.000001 0.994151 5.654196 -27.655643 0.269980 1.759622 -17.444624 -0.000000 -0.000001 -0.000005 0.000001 -0.000000 -0.000000 0.000001 -0.000000 -0.000000 0.000001 0.000000 -0.000000 0.000000 -0.000001 0.000001 0.000001 -0.000001 0.000001 0.000000 -0.000001 0.000001 -0.000000 -0.000001 0.000001 0.968010 8.730541 16.828623 26.972487 5.818285 58.456106 0.000002 1.888786 -0.000032 -13.024996 -5.397798 10.195380 -21.244164 4.286132 0.432281 10.018504 -27.381887 -19.635735 0.000004 -0.000005 0.000001 1.298130 -0.326186 14.800270 0.883082 -2.730627 35.836886 0.000000 0.000001 -0.000000 0.397421 -4.079436 18.748821 1.034155 -2.928211 38.896503 0.000001 -0.000002 0.000001 -0.516329 -1.548211 20.026340 0.518678 -2.137737 27.272447 0.000000 0.000006 0.000002 0.884376 -5.600513 17.801942 0.288140 -1.614249 20.239362 0.000001 0.000005 0.000001 -0.000001 -0.000003 -0.000000 -0.000001 -0.000003 0.000000 -0.000001 -0.000004 0.000000 0.000004 -0.000002 -0.000001 0.000004 -0.000002 -0.000001 0.000004 -0.000002 -0.000001 0.000004 -0.000002 -0.000001 -0.000000 0.000000 -0.000000 -0.000000 0.000000 -0.000000 -0.000000 0.000000 -0.000000 -0.000000 0.000000 -0.000000 -0.000000 0.000000 -0.000000 -0.000000 0.000000 -0.000000 -0.000000 0.000000 -0.000000 0.000000 0.000000 -0.000000 0.000000 0.000000 -0.000000 
